# xmcd
#
# Track frame offsets: 
#        182
#        13150
#        25350
#        38850
#        53850
#        66425
#        79725
#        94400
#        106150
#        117450
#        127212
#        141187
#        155625
#        170325
#        183675
#        196800
#
# Disc length: 2790 seconds
#
# Revision: 1
# Processed by: cddbd v1.5.2PL0 Copyright (c) Steve Scherf et al.
# Submitted via: ExactAudioCopyFreeDBPlugin 1.0
#
DISCID=eb0ae410
DTITLE=Louis Armstrong - Anthology
DYEAR=1993
DGENRE=Blues
TTITLE0=Chimes Blues
TTITLE1=Weather Bird Rag
TTITLE2=Froggie Moore
TTITLE3=Snake Rag
TTITLE4=Sweet Lovin' Man
TTITLE5=High Society Rag
TTITLE6=Sobbin' Blues
TTITLE7=Where Did You Stay Last Night?
TTITLE8=Zulu's Ball
TTITLE9=Workingman's Blues
TTITLE10=Buddy's Habit
TTITLE11=Tears
TTITLE12=I Ain't Gonna Tell Nobody
TTITLE13=Riverside Blues
TTITLE14=Mabel's Dream
TTITLE15=The Southern Stomps
EXTD=YEAR: 1993 ID3G: 8
EXTT0=
EXTT1=
EXTT2=
EXTT3=
EXTT4=
EXTT5=
EXTT6=
EXTT7=
EXTT8=
EXTT9=
EXTT10=
EXTT11=
EXTT12=
EXTT13=
EXTT14=
EXTT15=
PLAYORDER=
